# xmcd
#
# Track frame offsets:
#	150
#	16792
#	35565
#	51455
#	64286
#	78252
#	96343
#	111586
#	134327
#	154273
#	171252
#
# Disc length: 2481 seconds
#
# Revision: 0
# Processed by: cddbd v1.5.2PL0 Copyright (c) Steve Scherf et al.
# Submitted via: EasyCDDAExtractor 15.3.0.1
#
DISCID=9909af0b
DTITLE=Cher - Closer To The Truth
DYEAR=2013
DGENRE=Pop
TTITLE0=Woman's World
TTITLE1=Take It Like A Man
TTITLE2=My Love
TTITLE3=Dressed To Kill
TTITLE4=Red
TTITLE5=Lovers Forever
TTITLE6=I Walk Alone
TTITLE7=Sirens
TTITLE8=Favorite Scars
TTITLE9=I Hope You Find It
TTITLE10=Lie To Me
EXTD=
EXTT0=
EXTT1=
EXTT2=
EXTT3=
EXTT4=
EXTT5=
EXTT6=
EXTT7=
EXTT8=
EXTT9=
EXTT10=
PLAYORDER=
